<?xml version="1.0" encoding="UTF-8"?>
<svg width="32px" height="32px" viewBox="0 0 32 32" version="1.1" xmlns="http://www.w3.org/2000/svg" xmlns:xlink="http://www.w3.org/1999/xlink">
    <!-- Generator: Sketch 46.2 (44496) - http://www.bohemiancoding.com/sketch -->
    <title>logo_32</title>
    <desc>Created with Sketch.</desc>
    <defs></defs>
    <g id="Page-1" stroke="none" stroke-width="1" fill="none" fill-rule="evenodd">
        <g id="logo_32" fill="#231F20">
            <path d="M5.23712406,27.7375397 C3.82716165,27.7375397 3,26.9985385 3,25.7297788 C3,24.4670665 3.82716165,23.7268558 5.23712406,23.7268558 C6.67640977,23.7268558 7.42293233,24.6243008 7.42293233,25.7297788 C7.42293233,26.8400947 6.67640977,27.7375397 5.23712406,27.7375397 M10.7010338,16.6597793 C11.818985,8.21992642 16.2419173,5.84568866 18.987312,5.24094139 L19.0361842,5.58443784 C17.1228383,7.29708209 16.2138158,9.30121453 14.962688,17.713249 C13.4989662,27.5778864 9.71381579,28 7.04906015,28 C8.46024436,26.8400947 9.5549812,25.4419191 10.7010338,16.6597793 M21.4614662,15.3402207 C20.3447368,23.7812831 15.9218045,26.1531018 13.1764098,26.7602681 L13.1226504,26.4167717 C15.0421053,24.7029179 15.949906,22.695157 17.1985902,14.286751 C18.6647556,4.4209041 22.4474624,4 25.1109962,4 C23.699812,5.16111475 22.6111842,6.55566195 21.4614662,15.3402207 M26.8190789,8.4025601 C25.4042293,8.4025601 24.5795113,7.66839692 24.5795113,6.39963715 C24.5795113,5.13450587 25.4042293,4.39429522 26.8190789,4.39429522 C28.2559211,4.39429522 29,5.28932117 29,6.39963715 C29,7.50632465 28.2559211,8.4025601 26.8190789,8.4025601" id="mark"></path>
        </g>
    </g>
</svg>